<?xml version="1.0" standalone="no"?>
<!DOCTYPE svg PUBLIC "-//W3C//DTD SVG 20010904//EN"
 "http://www.w3.org/TR/2001/REC-SVG-20010904/DTD/svg10.dtd">
<svg version="1.0" xmlns="http://www.w3.org/2000/svg"
 width="1126.000000pt" height="325.000000pt" viewBox="0 0 1126.000000 325.000000"
 preserveAspectRatio="xMidYMid meet">

<g transform="translate(0.000000,325.000000) scale(0.100000,-0.100000)"
fill="#000000" stroke="none">
<path d="M7650 2949 c0 -68 3 -69 185 -69 90 0 170 3 179 6 11 4 16 19 16 50
l0 44 -190 0 -190 0 0 -31z"/>
<path d="M10305 2775 c-165 -31 -282 -92 -406 -215 -72 -71 -93 -101 -132
-180 -26 -52 -55 -124 -64 -160 -22 -81 -24 -271 -4 -350 66 -265 271 -476
537 -552 112 -32 286 -32 398 0 266 76 469 285 537 553 20 78 18 268 -4 349
-81 302 -331 521 -638 560 -103 12 -135 12 -224 -5z m285 -381 c161 -72 253
-272 206 -451 -32 -127 -94 -204 -204 -256 -60 -28 -77 -32 -157 -32 -80 0
-97 3 -156 31 -107 51 -174 134 -205 254 -53 207 66 420 265 477 70 20 178 10
251 -23z"/>
<path d="M277 2763 c-37 -3 -50 -9 -57 -26 -7 -15 -150 -1346 -150 -1392 0 -2
7 -11 16 -19 21 -22 315 -24 336 -2 13 12 30 142 89 675 7 56 15 97 19 90 4
-8 53 -171 109 -364 119 -410 116 -401 144 -409 43 -11 263 -6 280 7 11 8 56
146 129 394 61 211 113 381 115 379 3 -2 24 -174 48 -382 36 -320 46 -380 61
-391 13 -9 58 -13 158 -13 179 0 186 2 186 49 0 53 -137 1363 -145 1382 -5 12
-26 18 -88 22 -105 9 -255 9 -295 1 -38 -8 -33 6 -152 -389 -138 -454 -161
-527 -166 -523 -2 3 -65 204 -138 448 -74 243 -138 446 -143 451 -11 11 -279
20 -356 12z"/>
<path d="M2507 2763 c-25 -3 -42 -12 -51 -26 -18 -28 -546 -1384 -546 -1402 0
-22 25 -25 186 -25 135 0 156 2 172 18 10 10 36 64 57 120 l38 102 263 0 263
0 20 -55 c12 -30 30 -80 42 -110 11 -30 29 -60 39 -65 20 -11 290 -14 328 -4
13 4 22 14 22 25 0 22 -523 1362 -544 1394 -8 12 -29 25 -47 29 -32 6 -175 6
-242 -1z m201 -690 l70 -213 -149 0 c-82 0 -149 3 -149 7 0 9 95 301 122 376
11 32 24 55 28 50 4 -4 39 -104 78 -220z"/>
<path d="M3575 2763 c-11 -3 -23 -10 -27 -17 -4 -6 -8 -325 -8 -708 0 -620 2
-698 16 -712 13 -13 43 -16 170 -16 88 0 164 4 175 10 18 10 19 24 19 246 l0
235 82 -3 83 -3 126 -234 c76 -143 133 -237 145 -242 30 -12 352 -11 375 2 15
7 18 16 13 31 -3 12 -67 134 -140 271 -74 138 -134 254 -134 259 0 4 4 8 9 8
4 0 37 27 73 60 271 248 176 668 -181 793 -51 18 -88 20 -416 23 -198 1 -369
0 -380 -3z m642 -316 c40 -21 78 -70 93 -122 15 -51 1 -111 -37 -156 -42 -50
-77 -59 -223 -59 l-130 0 0 181 0 182 133 -5 c97 -3 141 -9 164 -21z"/>
<path d="M5040 2763 c-59 -2 -97 -8 -102 -16 -4 -7 -8 -326 -8 -709 0 -620 2
-698 16 -712 13 -13 43 -16 173 -16 110 0 162 4 174 13 15 10 17 40 19 242 l3
230 80 0 80 0 125 -233 c69 -128 132 -237 140 -242 21 -13 356 -13 381 1 15 7
18 16 13 32 -4 12 -67 134 -140 271 -74 137 -134 253 -134 258 0 4 4 8 9 8 4
0 37 27 73 60 268 245 179 657 -168 787 -68 26 -75 26 -354 28 -157 1 -328 0
-380 -2z m568 -317 c41 -21 88 -85 96 -131 14 -73 -34 -163 -101 -191 -22 -10
-75 -14 -163 -14 l-130 0 0 181 0 182 133 -5 c98 -3 140 -9 165 -22z"/>
<path d="M6460 2763 c-84 -3 -127 -8 -132 -16 -4 -7 -8 -328 -8 -714 0 -684 0
-703 19 -713 13 -6 197 -10 530 -10 l510 0 15 22 c13 18 16 52 16 160 l0 138
-26 10 c-14 6 -165 10 -355 10 l-329 0 0 125 0 125 260 0 c246 0 260 1 270 19
13 25 13 231 0 251 -8 13 -51 15 -270 18 l-260 3 0 119 0 120 329 0 c398 0
361 -18 361 172 0 115 -2 130 -20 148 -19 19 -32 20 -402 18 -211 -1 -439 -4
-508 -5z"/>
<path d="M7683 2760 l-23 -9 0 -709 c0 -537 3 -711 12 -720 8 -8 61 -12 174
-12 134 0 165 3 178 16 14 14 16 92 16 713 0 599 -2 700 -15 711 -18 15 -311
24 -342 10z"/>
<path d="M8440 2763 c-35 -2 -68 -9 -72 -16 -4 -7 -8 -328 -8 -714 0 -684 0
-703 19 -713 26 -13 316 -13 342 0 18 10 19 24 19 246 l0 235 82 -3 81 -3 124
-230 c67 -126 131 -236 140 -242 18 -14 345 -19 377 -7 9 3 16 16 16 28 0 12
-61 135 -135 273 -74 139 -135 256 -135 261 0 5 18 22 41 38 136 94 218 280
192 436 -32 187 -141 319 -319 385 -68 26 -73 26 -384 28 -173 1 -344 0 -380
-2z m549 -304 c95 -22 146 -91 139 -190 -3 -43 -11 -66 -32 -94 -43 -56 -76
-65 -226 -65 l-130 0 0 180 0 180 103 0 c56 0 122 -5 146 -11z"/>
</g>
</svg>
