<svg width="307" height="84" viewBox="0 0 307 84" fill="none" xmlns="http://www.w3.org/2000/svg">
<path d="M41.033 61.804C30.553 61.804 22.0547 71.5983 22.0547 83.6806H266.121C276.603 83.6806 285.099 73.8863 285.099 61.804H41.033Z" fill="#FF7830"/>
<path d="M282.858 20.9624C279.905 21.6847 277.386 23.8538 276.17 26.6104C274.143 31.015 275.201 36.8138 279.128 39.8378C283.144 43.0698 289.656 42.5304 293.002 38.5898C296.721 34.407 296.486 27.3738 292.449 23.4767C289.985 21.0264 286.211 20.1235 282.858 20.9624ZM282.579 10.9213C288.547 10.0915 294.835 12.007 299.299 16.0321C303.752 19.9818 306.333 25.9247 306.15 31.8561C306.054 37.543 303.402 43.1224 299.057 46.823C295.055 50.3315 289.649 52.1715 284.321 51.8675C278.525 51.6344 272.931 48.7887 269.286 44.3178C266.248 40.6744 264.586 35.9521 264.65 31.223C264.646 26.3041 266.525 21.4264 269.802 17.7395C273.039 14.0253 277.686 11.5864 282.579 10.9213Z" fill="#0250A8"/>
<path d="M4.79118 12.8799C4.79575 12.1736 5.19118 11.3004 6.03004 11.3622C9.22547 11.321 12.4255 11.3233 15.6209 11.3622C16.35 11.2913 16.7546 11.9702 16.9032 12.5782C19.3397 20.6307 21.7649 28.6833 24.1992 36.7359C26.4277 29.4056 28.6609 22.0799 30.8872 14.7496C31.1843 13.8102 31.3832 12.8319 31.8289 11.9473C32.1832 11.2456 33.0769 11.3599 33.7352 11.3302C36.5992 11.3667 39.4586 11.3004 42.318 11.3599C43.1615 11.3073 43.6803 12.1233 43.6575 12.8844C44.8849 25.1176 46.2243 37.3416 47.4517 49.5747C47.4632 50.089 47.63 50.8387 47.0632 51.1382C46.2495 51.4239 45.3558 51.2844 44.51 51.3187C42.4323 51.2616 40.35 51.3987 38.2792 51.2593C37.5637 51.2593 37.3077 50.5164 37.2803 49.929C36.5077 43.0879 35.7397 36.249 34.9535 29.4056C32.9626 36.2284 30.9763 43.0536 28.9877 49.8764C28.8163 50.4913 28.4483 51.2959 27.678 51.2662C25.3535 51.3004 23.022 51.3142 20.6975 51.257C19.9569 51.2433 19.6163 50.4684 19.4586 49.8627C17.4815 43.0604 15.4883 36.2604 13.4975 29.4604C12.6997 36.3702 11.9432 43.289 11.1249 50.1942C11.1615 51.0399 10.2929 51.3759 9.57289 51.3073C6.96718 51.2776 4.34775 51.3964 1.74661 51.2502C0.905465 51.1587 0.923751 50.1644 1.00604 49.5404C2.27461 37.321 3.53175 25.1016 4.79118 12.8799Z" fill="#0250A8"/>
<path d="M71.1276 23.9601C69.6373 28.0013 68.4853 32.1567 66.9858 36.1978H75.2624C73.8864 32.1178 72.515 28.0356 71.1276 23.9601ZM66.1356 12.5224C66.3527 11.8481 66.9881 11.3293 67.7196 11.3544C69.9733 11.3178 72.2338 11.3338 74.4921 11.3476C75.6647 11.2607 76.0921 12.5384 76.467 13.4001C81.0521 25.0847 85.5984 36.783 90.1836 48.4676C90.4418 49.1967 90.8578 49.9076 90.8761 50.6984C90.611 51.4138 89.683 51.2676 89.0796 51.3201C86.5493 51.2676 84.0144 51.3887 81.4887 51.2584C80.8076 51.2515 80.4944 50.591 80.2841 50.0516C79.6007 48.3213 78.963 46.5704 78.3001 44.8333H63.9436C63.1938 46.7213 62.5356 48.6527 61.731 50.5224C61.5413 51.0527 60.9858 51.311 60.4464 51.295C58.115 51.3498 55.779 51.2813 53.4476 51.3224C52.7321 51.2835 51.8818 51.4253 51.3516 50.8287C51.539 49.7864 52.0053 48.8287 52.3778 47.8458C56.9698 36.0744 61.5436 24.2938 66.1356 12.5224Z" fill="#0250A8"/>
<path d="M106.732 19.583C106.73 22.8675 106.73 26.1453 106.732 29.4298C109.013 29.3727 111.303 29.567 113.578 29.2995C115.511 29.0641 117.04 27.391 117.351 25.519C117.902 22.9864 116.074 20.1613 113.47 19.7613C111.235 19.4893 108.976 19.6104 106.732 19.583ZM96.3249 11.9601C96.5604 11.279 97.3764 11.3521 97.9501 11.3338C103.683 11.3476 109.413 11.3338 115.143 11.3453C119.85 11.3315 124.444 14.0424 126.704 18.1384C128.352 21.0275 128.782 24.5704 127.884 27.7635C126.963 31.0915 124.597 33.8847 121.642 35.6401C124.126 40.2893 126.62 44.9338 129.107 49.5807C129.479 50.1201 129.52 51.1533 128.675 51.247C125.758 51.4115 122.826 51.2515 119.904 51.3224C119.205 51.2835 118.24 51.4298 117.875 50.6733C115.623 46.447 113.36 42.2275 111.095 38.0127H106.732C106.711 42.0767 106.759 46.1407 106.711 50.2024C106.782 50.8401 106.224 51.3384 105.598 51.2835C102.94 51.3475 100.279 51.3064 97.6232 51.3064C96.9375 51.3658 96.1215 50.991 96.2335 50.1887C96.1672 37.9738 96.2381 25.7544 96.1992 13.5373C96.2061 13.0093 96.1924 12.4744 96.3249 11.9601Z" fill="#0250A8"/>
<path d="M144.895 19.5829C144.893 22.8675 144.893 26.1452 144.895 29.4298C147.16 29.3749 149.432 29.5578 151.691 29.3086C153.627 29.0801 155.17 27.4206 155.492 25.5441C156.068 22.9932 154.207 20.1223 151.567 19.7543C149.355 19.4915 147.119 19.6103 144.895 19.5829ZM134.37 12.8972C134.285 12.2092 134.584 11.2835 135.442 11.3612C141.398 11.3086 147.357 11.3543 153.316 11.3452C157.94 11.3452 162.45 13.9623 164.74 17.9509C166.468 20.8606 166.948 24.4766 166.038 27.7315C165.126 31.0709 162.754 33.8823 159.791 35.6401C162.235 40.2092 164.676 44.7852 167.135 49.3475C167.359 49.8183 167.698 50.3783 167.405 50.8995C167.094 51.3429 166.495 51.2721 166.027 51.3132C163.256 51.3155 160.491 51.3063 157.72 51.3155C157.112 51.3041 156.319 51.3201 156.022 50.6732C153.764 46.4515 151.51 42.2275 149.243 38.0126H144.895C144.886 41.9623 144.904 45.9143 144.888 49.8618C144.93 50.4766 144.708 51.2675 143.951 51.2606C141.448 51.3909 138.939 51.2606 136.434 51.3223C135.782 51.2652 134.895 51.4435 134.493 50.7898C134.274 49.8618 134.388 48.8995 134.367 47.9578C134.374 36.2709 134.37 24.5841 134.37 12.8972Z" fill="#0250A8"/>
<path d="M172.452 12.8641C172.352 12.1395 172.765 11.2527 173.62 11.3555C182.544 11.3212 191.467 11.3464 200.391 11.3441C201.01 11.2778 201.732 11.6092 201.767 12.3041C201.883 14.5029 201.792 16.7155 201.815 18.9167C201.879 19.6275 201.538 20.5784 200.676 20.5555C194.777 20.6241 188.875 20.5624 182.973 20.5829C182.973 22.7955 182.969 25.0058 182.976 27.2207C187.293 27.2161 191.616 27.2207 195.933 27.2138C196.436 27.2389 197.001 27.1955 197.435 27.5041C197.801 27.8995 197.664 28.5007 197.719 28.9944C197.671 30.7749 197.785 32.5601 197.661 34.3407C197.597 35.0104 196.843 35.2367 196.267 35.1932C191.837 35.2047 187.405 35.1932 182.976 35.1955C182.969 37.4767 182.973 39.7578 182.973 42.0435C188.88 42.0435 194.793 42.0458 200.701 42.0389C201.325 42.0229 202.317 42.0664 202.349 42.9098C202.468 45.1132 202.37 47.3304 202.4 49.5429C202.487 50.3909 202.011 51.4515 201.001 51.2984C191.981 51.3258 182.96 51.3052 173.94 51.3098C173.245 51.3875 172.363 51.0287 172.471 50.1967C172.427 37.7555 172.466 25.3052 172.452 12.8641Z" fill="#0250A8"/>
<path d="M209.702 11.4757C210.477 11.2403 211.309 11.3592 212.114 11.334C214.233 11.382 216.358 11.2746 218.479 11.3752C219.245 11.398 219.796 12.1157 219.67 12.8586C219.675 25.2015 219.677 37.542 219.67 49.8849C219.739 50.5135 219.423 51.2723 218.685 51.2609C215.881 51.3637 213.067 51.3157 210.262 51.2883C209.449 51.3637 209.055 50.5729 209.156 49.8735C209.145 37.654 209.167 25.43 209.145 13.2152C209.174 12.6095 209.074 11.8163 209.702 11.4757Z" fill="#0250A8"/>
<path d="M238.944 19.583C238.946 22.8675 238.942 26.1498 238.946 29.4344C241.239 29.3681 243.55 29.5715 245.836 29.2973C247.973 29.0115 249.552 27.0001 249.646 24.9133C249.852 22.4813 247.959 19.9898 245.474 19.7315C243.303 19.5053 241.12 19.6035 238.944 19.583ZM228.428 12.879C228.334 12.1521 228.729 11.2401 229.605 11.3544C234.055 11.3133 238.514 11.3544 242.969 11.3407C245.074 11.391 247.193 11.2035 249.285 11.4915C253.541 12.1293 257.415 14.9338 259.269 18.8035C261.026 22.335 260.997 26.7053 259.129 30.1955C257.957 32.479 256.044 34.3075 253.858 35.6401C256.281 40.159 258.688 44.6893 261.132 49.199C261.378 49.7018 261.692 50.2344 261.548 50.8264C261.159 51.3864 260.418 51.2835 259.833 51.3201C257.18 51.3064 254.524 51.311 251.868 51.3201C251.257 51.2904 250.45 51.3635 250.128 50.7213C247.852 46.4904 245.591 42.2481 243.317 38.0127H238.946C238.926 42.0721 238.978 46.1315 238.926 50.1887C239.036 50.959 238.277 51.3658 237.602 51.3041C234.853 51.295 232.096 51.3727 229.353 51.2607C228.624 51.2515 228.368 50.4881 228.428 49.8847C228.421 37.5487 228.423 25.215 228.428 12.879Z" fill="#0250A8"/>
<path d="M138.022 72.4311C138.662 72.4311 139.154 72.2848 139.497 71.99C139.839 71.6951 140.011 71.2426 140.011 70.6391C140.011 70.0631 139.833 69.622 139.474 69.3111C139.115 69.0003 138.594 68.8448 137.908 68.8448C137.666 68.8448 137.462 68.8494 137.305 68.8586C137.145 68.8631 136.98 68.8814 136.813 68.9134V72.4311H138.022ZM136.834 79.718C136.667 79.7637 136.404 79.8094 136.047 79.8528C135.689 79.9008 135.334 79.9214 134.985 79.9214C134.635 79.9214 134.326 79.8963 134.059 79.8414C133.791 79.7888 133.567 79.6951 133.385 79.558C133.202 79.4231 133.067 79.2334 132.975 78.9911C132.882 78.7488 132.836 78.4311 132.836 78.038V67.3454C132.836 67.03 132.925 66.7831 133.099 66.6094C133.275 66.4357 133.515 66.294 133.819 66.1911C134.338 66.006 134.927 65.8757 135.59 65.7934C136.253 65.7111 136.918 65.6677 137.59 65.6677C139.691 65.6677 141.298 66.1134 142.409 67.0071C143.519 67.9008 144.077 69.11 144.077 70.6391C144.077 71.3797 143.958 72.0494 143.723 72.6483C143.487 73.2426 143.135 73.7591 142.671 74.1911C142.207 74.6208 141.62 74.9546 140.914 75.19C140.205 75.4254 139.387 75.5397 138.457 75.5397H136.834V79.718Z" fill="white"/>
<path d="M148.945 68.1633C148.945 67.5141 149.135 66.9976 149.517 66.6204C149.896 66.2433 150.415 66.0536 151.069 66.0536H158.609C158.714 66.2181 158.808 66.4398 158.895 66.7118C158.977 66.9838 159.018 67.2696 159.018 67.5736C159.018 68.1496 158.895 68.5587 158.641 68.7987C158.39 69.0433 158.058 69.1621 157.649 69.1621H152.829V71.2741H157.967C158.074 71.441 158.17 71.6558 158.255 71.921C158.337 72.1861 158.378 72.4696 158.378 72.7736C158.378 73.3473 158.257 73.7541 158.013 73.9987C157.77 74.2387 157.444 74.3598 157.032 74.3598H152.829V76.7438H158.701C158.806 76.9107 158.9 77.1301 158.984 77.4021C159.069 77.6741 159.11 77.9621 159.11 78.2638C159.11 78.8398 158.984 79.2536 158.733 79.5027C158.481 79.7518 158.15 79.8753 157.741 79.8753H151.069C150.415 79.8753 149.896 79.6878 149.517 79.3084C149.135 78.9313 148.945 78.4147 148.945 77.7656V68.1633Z" fill="white"/>
<path d="M163.649 69.2303C163.544 69.0657 163.443 68.8372 163.352 68.5492C163.261 68.2634 163.215 67.9594 163.215 67.6417C163.215 67.052 163.347 66.6269 163.615 66.3709C163.882 66.1149 164.227 65.9846 164.655 65.9846H174.614C174.721 66.1514 174.819 66.38 174.911 66.6657C175.002 66.9537 175.048 67.2577 175.048 67.5732C175.048 68.1629 174.915 68.588 174.648 68.844C174.383 69.1023 174.035 69.2303 173.61 69.2303H171.075V79.7172C170.906 79.7629 170.643 79.8086 170.285 79.852C169.928 79.9 169.574 79.9229 169.224 79.9229C168.874 79.9229 168.563 79.8954 168.298 79.8429C168.031 79.788 167.807 79.6943 167.624 79.5594C167.441 79.4223 167.304 79.2326 167.213 78.9926C167.123 78.748 167.078 78.4303 167.078 78.0394V69.2303H163.649Z" fill="white"/>
<path d="M219.56 1.56062V2.99147H209.012V1.56062C209.012 1.00747 209.467 0.557188 210.022 0.557188H218.55C219.115 0.557188 219.56 1.00747 219.56 1.56062Z" fill="#FF7830"/>
<path d="M219.56 5.52059V7.26002C219.56 7.82002 219.115 8.26345 218.55 8.26345H210.022C209.467 8.26345 209.012 7.82002 209.012 7.26002V5.52059H219.56Z" fill="#0250A8"/>
<path d="M219.56 5.51955H209.012V2.99158H219.56V5.51955Z" fill="white"/>
</svg>
